<svg width="24" height="25" viewBox="0 0 24 25" fill="none" xmlns="http://www.w3.org/2000/svg">
<path d="M16.5 6.17822H13.5C12.9477 6.17822 12.5 6.62594 12.5 7.17822V10.1782H16.5C16.6137 10.1757 16.7216 10.2286 16.7892 10.3201C16.8568 10.4116 16.8758 10.5302 16.84 10.6382L16.1 12.8382C16.0318 13.0401 15.8431 13.1766 15.63 13.1782H12.5V20.6782C12.5 20.9543 12.2761 21.1782 12 21.1782H9.5C9.22386 21.1782 9 20.9543 9 20.6782V13.1782H7.5C7.22386 13.1782 7 12.9543 7 12.6782V10.6782C7 10.4021 7.22386 10.1782 7.5 10.1782H9V7.17822C9 4.96908 10.7909 3.17822 13 3.17822H16.5C16.7761 3.17822 17 3.40208 17 3.67822V5.67822C17 5.95436 16.7761 6.17822 16.5 6.17822Z" fill="white"/>
</svg>
