<svg width="19" height="19" viewBox="0 0 19 19" fill="none" xmlns="http://www.w3.org/2000/svg">
<g clip-path="url(#clip0_450_1110)">
<path d="M18.9145 15.1435L18.82 14.8586C18.596 14.1928 17.8618 13.4985 17.1874 13.3156L14.6912 12.6337C14.0142 12.4495 13.0486 12.6971 12.5534 13.1924L11.6499 14.0958C8.36672 13.2086 5.79216 10.634 4.90619 7.35139L5.80964 6.44793C6.30492 5.95266 6.55251 4.98832 6.36835 4.31139L5.68768 1.81397C5.50351 1.13827 4.80791 0.404127 4.14345 0.182613L3.8585 0.0868075C3.19276 -0.134707 2.24331 0.0893161 1.74808 0.584548L0.396693 1.93717C0.155269 2.17732 0.000969679 2.8642 0.000969679 2.86671C-0.0462958 7.15724 1.63607 11.291 4.67101 14.3259C7.69851 17.3534 11.8167 19.0333 16.0948 18.9973C16.1172 18.9973 16.824 18.8454 17.0654 18.6052L18.4168 17.2538C18.912 16.7587 19.136 15.8092 18.9145 15.1435Z" fill="#1D8880"/>
</g>
<defs>
<clipPath id="clip0_450_1110">
<rect width="19" height="19" fill="white"/>
</clipPath>
</defs>
</svg>
