<svg width="19" height="20" viewBox="0 0 19 20" fill="none" xmlns="http://www.w3.org/2000/svg">
<g clip-path="url(#clip0_409_817)">
<path d="M18.5693 9.15125C18.547 11.504 17.9422 13.3446 16.6842 14.944C15.3334 16.6622 13.5744 17.7532 11.422 18.1948C9.75955 18.5325 8.14158 18.3841 6.5533 17.8089C6.20076 17.679 5.85564 17.5268 5.52537 17.345C5.42517 17.2893 5.33982 17.2819 5.22849 17.319C3.72556 17.8052 2.21892 18.2876 0.71228 18.7663C0.645483 18.7886 0.556421 18.8516 0.504468 18.8034C0.445093 18.744 0.519311 18.655 0.541577 18.5845C0.842163 17.6901 1.14275 16.7921 1.44705 15.8977C1.63259 15.3522 1.81072 14.8104 2.00369 14.2686C2.05564 14.1276 2.03708 14.02 1.95916 13.8901C1.57693 13.237 1.2949 12.5393 1.09451 11.8083C0.719702 10.4352 0.678882 9.04735 0.972046 7.65946C1.29119 6.14539 1.95916 4.79461 2.98708 3.62938C4.23025 2.21922 5.76287 1.28778 7.58494 0.838754C8.74646 0.553012 9.91912 0.50848 11.0992 0.701449C12.6429 0.953793 14.0345 1.5661 15.248 2.55321C16.5097 3.58114 17.4301 4.8577 18.009 6.39032C18.3281 7.21785 18.5804 8.57235 18.5693 9.15125ZM2.76814 16.562C3.68845 16.2651 4.56794 15.9831 5.44001 15.6973C5.55505 15.6602 5.64783 15.6677 5.74802 15.7345C6.08201 15.9571 6.44197 16.1352 6.81306 16.2911C8.01912 16.8032 9.27341 16.9888 10.5685 16.8218C12.1568 16.6177 13.5521 15.9794 14.7248 14.8698C16.2017 13.4708 16.9922 11.7563 17.0627 9.73016C17.1295 7.74481 16.4912 6.00067 15.159 4.52C13.8935 3.11356 12.3052 2.312 10.4312 2.11161C8.80212 1.93719 7.27693 2.28973 5.86677 3.13582C4.66072 3.86317 3.73669 4.85399 3.0947 6.10457C2.38591 7.48133 2.1447 8.94344 2.3488 10.4761C2.50095 11.6339 2.91658 12.6989 3.58455 13.6563C3.65876 13.7639 3.68103 13.853 3.6365 13.9792C3.49919 14.3577 3.37673 14.7399 3.24685 15.1184C3.09099 15.586 2.93884 16.0536 2.76814 16.562Z" fill="white"/>
<path d="M5.23204 7.40337C5.2506 6.52016 5.56231 5.86333 6.15235 5.34008C6.34161 5.16938 6.5754 5.09516 6.83888 5.13227C6.95021 5.14712 7.06153 5.15825 7.17286 5.15083C7.38067 5.13969 7.52169 5.23989 7.5922 5.42173C7.84083 6.06743 8.08204 6.71313 8.32325 7.36255C8.40489 7.5852 8.26388 7.75962 8.14513 7.91919C8.00782 8.10844 7.84083 8.27544 7.67755 8.44243C7.51056 8.61313 7.48829 8.70962 7.60333 8.91743C8.27501 10.1383 9.21759 11.0772 10.4979 11.6561C10.5424 11.6747 10.5869 11.7006 10.6315 11.7229C10.8022 11.8008 10.9543 11.7823 11.0842 11.6338C11.3217 11.3555 11.5815 11.0995 11.8004 10.8063C11.9451 10.6133 12.0453 10.5799 12.2643 10.6764C12.9174 10.9584 13.5297 11.3147 14.1531 11.6598C14.2682 11.7229 14.309 11.8194 14.3053 11.953C14.2719 13.0477 13.6447 13.6192 12.5426 13.8715C12.0082 13.994 11.5147 13.8604 11.0248 13.6823C9.99688 13.3112 9.00606 12.8733 8.17481 12.1385C7.51427 11.5522 6.93165 10.8991 6.4381 10.168C6.05958 9.60395 5.66622 9.05102 5.44728 8.39419C5.3211 8.04536 5.22833 7.68911 5.23204 7.40337Z" fill="white"/>
</g>
<defs>
<clipPath id="clip0_409_817">
<rect width="19" height="19" fill="white" transform="translate(0 0.178223)"/>
</clipPath>
</defs>
</svg>
