<svg width="23" height="22" viewBox="0 0 23 22" fill="none" xmlns="http://www.w3.org/2000/svg">
<path d="M14.7965 7.96194C14.7965 6.04863 13.2288 4.49213 11.3018 4.49213C9.37488 4.49213 7.80713 6.04863 7.80713 7.96194C7.80713 9.87525 9.37488 11.4318 11.3018 11.4318C13.2288 11.4318 14.7965 9.87525 14.7965 7.96194Z" fill="white"/>
<path d="M11.3003 21.9987L12.7167 20.151C14.1952 18.1992 19.0188 11.549 19.0188 7.91315C19.0191 3.18075 15.9181 0.00140381 11.302 0.00140381C6.68599 0.00140381 3.58496 3.18075 3.58496 7.9135C3.58496 11.8288 9.24927 19.3143 9.89354 20.1527L11.3003 21.9987ZM6.42849 7.96197C6.42849 5.29069 8.61466 3.11715 11.302 3.11715C13.9894 3.11715 16.1756 5.29069 16.1756 7.96197C16.1756 10.6332 13.9894 12.8068 11.302 12.8068C8.61466 12.8068 6.42849 10.6336 6.42849 7.96197Z" fill="white"/>
</svg>
